<svg xmlns="http://www.w3.org/2000/svg" viewBox="0 0 90 60"><path d="M66.041,29.284a19.831,19.831,0,0,0-.171,2.342c-.057,1.9-.08,2.683-2.825,4.742-2.352,1.764-3.735,1.99-4.157,1.926l-4.153-3.02,3,15.575,2.446-1.081c.258-.114,6.341-2.842,9.11-7.455a14.819,14.819,0,0,0,.832-13.538L67.144,21.51Z" fill="#fceadf"/><path d="M67.194,27.776A18.166,18.166,0,0,0,65.5,29.321c-1.267,1.269-1.741,1.744-4.928,1.148-3.7-.691-4.319-1.913-4.326-1.926l.065.242-1.268-4.794L52.4,28.035l-5.306,8.6,2.232.988c.258.115,6.4,2.8,11.477,1.608,4.5-1.052,7.95-4.265,9.7-9.048l2.583-7.049Z" fill="#fceadf"/><path d="M66.672,31.618a18.822,18.822,0,0,0,1.53,1.723,4.085,4.085,0,0,1,1.534,3.526,18.108,18.108,0,0,1-.128,1.952c-.39,3.473-1.281,4.535-1.522,4.763l-4.557,1.157,12.813,8.08.856-2.585c.092-.276,2.228-6.843.876-12.077a13.884,13.884,0,0,0-8.993-9.84l-6.827-2.454Z" fill="#fceadf"/><path d="M67.012,28.3,61.1,31.89l6.905.36a16.936,16.936,0,0,0,2.246-.056c1.674-.125,2.367-.177,4.566,2.488,2.593,3.141,2.345,4.587,2.341,4.6l.093-.237L75.582,43.3l4.258-1.292,9.306-3.13L88,36.673c-.135-.261-3.357-6.4-7.974-8.876A12.7,12.7,0,0,0,67.012,28.3Z" fill="#fceadf"/><path d="M66.914,28.281l-6.263,2.927,6.824,1.1a16.761,16.761,0,0,0,2.24.186c1.676.057,2.372.081,4.27,2.969,2.236,3.4,1.832,4.814,1.828,4.827a2.076,2.076,0,0,1,1.406-1.148l.964,4.148,9.589-2.1-.9-2.316c-.105-.274-2.642-6.729-6.964-9.688A12.7,12.7,0,0,0,66.914,28.281Z" fill="#fceadf"/><path d="M65.724,31.139a18.432,18.432,0,0,0,1.44,1.8c1.176,1.338,1.713,1.949,1.126,5.54h0c-.566,3.449-1.51,4.465-1.762,4.68-.454.092-4.611.924-4.611.924L74.3,52.8l.985-2.538c.107-.272,2.575-6.721,1.489-12.018A13.88,13.88,0,0,0,68.3,27.966l-6.692-2.8Z" fill="#fceadf"/><path d="M74.546,20.036h0c-4.336,1.613-7.349,5.235-8.483,10.2L64.39,37.552l5.265-5.347a18.3,18.3,0,0,0,1.483-1.747c1.1-1.418,1.506-1.948,4.743-1.76,3.757.219,4.527,1.354,4.533,1.366l-.093-.233,1.861,4.594,2.111-4.342,4.178-9.2-2.338-.7C85.863,20.1,79.433,18.22,74.546,20.036Z" fill="#fceadf"/><path d="M73.872,9.035c-.243.143-5.972,3.551-8.193,8.452h0a14.818,14.818,0,0,0,.729,13.543L70.2,37.907l.2-7.85a20.129,20.129,0,0,0-.1-2.346c-.162-1.892-.23-2.676,2.262-5.036,2.245-2.127,3.633-2.448,3.979-2.391a2.112,2.112,0,0,1-1.373-2.152l4.153-.469L76.178,7.68Z" fill="#fceadf"/><path d="M76.318,10.307c-.257.114-6.341,2.842-9.11,7.454h0A14.822,14.822,0,0,0,66.376,31.3l2.976,7.263,1.1-7.772a20.284,20.284,0,0,0,.171-2.342c.057-1.9.08-2.684,2.826-4.744,2.353-1.764,3.734-1.989,4.155-1.925l4.151,3.007L78.764,9.225Z" fill="#fceadf"/><path d="M75.689,20.844c-4.5,1.052-7.951,4.266-9.7,9.049l-2.58,7.045L69.3,32.3a18.176,18.176,0,0,0,1.692-1.546c1.265-1.268,1.739-1.743,4.927-1.146,3.7.69,4.319,1.914,4.326,1.926.115.437,1.2,4.55,1.2,4.55l2.642-4.043,5.305-8.6-2.231-.988C86.907,22.338,80.765,19.658,75.689,20.844Z" fill="#fceadf"/><path d="M60.15,9.719c-.1.272-2.573,6.722-1.489,12.019h0A13.882,13.882,0,0,0,67.142,32.02l6.7,2.8-4.121-5.973a18.931,18.931,0,0,0-1.441-1.8A4,4,0,0,1,66.91,23.89a15.229,15.229,0,0,1,.24-2.384c.565-3.449,1.511-4.465,1.761-4.681l4.612-.923L61.136,7.181Z" fill="#fceadf"/><path d="M58.026,17.325,48.437,19.43l.9,2.316c.1.274,2.643,6.729,6.965,9.688a12.7,12.7,0,0,0,13,.9l6.263-2.927-6.824-1.1a16.935,16.935,0,0,0-2.24-.187c-1.677-.057-2.371-.08-4.27-2.968-1.637-2.491-1.859-3.914-1.859-4.5,0-.055,0-.082.007-.123l4.762-4.761Z" fill="#fceadf"/><path d="M57.845,40.169l1.471,7.651s5.692-2.515,8.146-6.6a12.654,12.654,0,0,0,.686-11.634c-.49,3.459.785,5.03-3.826,8.489S57.845,40.169,57.845,40.169Z" fill="#cd2726"/><path d="M54.216,29.152l-4.024,6.522s5.69,2.521,10.131,1.483a11.477,11.477,0,0,0,8.187-7.708c-2.637,2.076-2.775,4.151-8.327,3.113S54.216,29.152,54.216,29.152Z" fill="#cd2726"/><path d="M68.86,45.584l6.317,3.983s2.046-6.19.835-10.878a11.709,11.709,0,0,0-7.651-8.369c2.083,2.715,4.031,2.765,3.362,8.736S68.86,45.584,68.86,45.584Z" fill="#cd2726"/><path d="M79.162,39.99l6.951-2.339s-3-5.787-7.089-7.978a10.569,10.569,0,0,0-10.906.451c3.275.17,4.59-1.343,8.344,3.2S79.162,39.99,79.162,39.99Z" fill="#cd2726"/><path d="M77.726,41.214l7.164-1.571s-2.355-6.079-6.182-8.7a10.574,10.574,0,0,0-10.893-.734c3.24.524,4.711-.838,7.949,4.088S77.726,41.214,77.726,41.214Z" fill="#af3354"/><path d="M67.075,45.512,72.9,50.187s2.737-5.918,2.066-10.713a11.7,11.7,0,0,0-6.652-9.182c1.762,2.934,3.692,3.2,2.349,9.06S67.075,45.512,67.075,45.512Z" fill="#af3354"/><path d="M82.354,29.2l3.17-6.977s-5.961-1.781-10.236-.192a11.483,11.483,0,0,0-7.151,8.678c2.354-2.39,2.23-4.467,7.868-4.138S82.354,29.2,82.354,29.2Z" fill="#af3354"/><path d="M77.292,18.3,74.95,10.871s-5.364,3.153-7.331,7.5A12.651,12.651,0,0,0,68.273,30c.09-3.492-1.358-4.907,2.826-8.873S77.292,18.3,77.292,18.3Z" fill="#af3354"/><path d="M78.65,19.906l-1.471-7.652s-5.692,2.516-8.145,6.6a12.653,12.653,0,0,0-.687,11.635c.491-3.459-.785-5.031,3.827-8.49S78.65,19.906,78.65,19.906Z" fill="#70425c"/><path d="M82.28,30.922,86.3,24.4s-5.689-2.52-10.13-1.482-6.938,4.3-8.188,7.707c2.637-2.074,2.776-4.15,8.327-3.113S82.28,30.922,82.28,30.922Z" fill="#70425c"/><path d="M68.242,14.788l-6.107-4.3s-2.359,6.078-1.388,10.821a11.706,11.706,0,0,0,7.217,8.745c-1.943-2.816-3.886-2.964-2.914-8.894S68.242,14.788,68.242,14.788Z" fill="#70425c"/><path d="M58.482,19.405l-7.163,1.573s2.355,6.078,6.183,8.7a10.572,10.572,0,0,0,10.892.734c-3.238-.526-4.71.838-7.949-4.088S58.482,19.405,58.482,19.405Z" fill="#70425c"/><path d="M67.52,30.706a.562.562,0,0,0-.146-.138l0-.433a2.355,2.355,0,0,0-.084-.769,1.077,1.077,0,0,0-.432-.532,1.242,1.242,0,0,0-.7-.2,1.423,1.423,0,0,0-.339.045.566.566,0,0,0-.425-.157l-.128.007a.567.567,0,0,0-.406.2.862.862,0,0,1-.066.072l-.027.02c-.015.006-.04.016-.094.034.014-.006-.085.019-.107.024a.68.68,0,0,0-.115.027.626.626,0,0,0-.078.038.962.962,0,0,0-.222-.17,1.258,1.258,0,0,0-.581-.131,2.113,2.113,0,0,0-.667.094,1.633,1.633,0,0,0-.191.1.553.553,0,0,0-.332-.119c-.05,0-.108,0-.178.008-.042,0-.17.013-.222.013l-.172-.015c-.134-.012-.222-.019-.262-.019a.759.759,0,0,0-.2.036.577.577,0,0,0-.143-.029H61.1l-.15,0c-.137.006-.222.009-.282.009-.151,0-.225,0-.256-.007-.05-.006-.133-.01-.281-.013a.612.612,0,0,0-.095.018h-.006c-.056,0-.083,0-.111,0s-.081,0-.242.012c-.1,0-.179.009-.224.009-.06,0-.133,0-.222-.01-.042,0-.056,0-.088-.006a.909.909,0,0,0,.074-.336.823.823,0,0,0-.273-.61.88.88,0,0,0-.615-.236.848.848,0,0,0-.613.248.839.839,0,0,0-.247.607.868.868,0,0,0,.137.449.593.593,0,0,0-.147.061.99.99,0,0,0-.177-.136,1.263,1.263,0,0,0-.582-.131,2.235,2.235,0,0,0-.531.063c0-.052,0-.2,0-.2s0-.483,0-.483a.564.564,0,0,0-.548-.562c-.048,0-.069,0-.091,0l-.118,0a.55.55,0,0,0-.381.191h-.55l-.522,0-.289,0H53.26a.558.558,0,0,0-.394-.186h-.144a.569.569,0,0,0-.535.377c-.015.043-.032.1-.066.216a3.773,3.773,0,0,1-.165.512.572.572,0,0,0,.08.612.987.987,0,0,0,.308.226.563.563,0,0,0,.264.065.682.682,0,0,0,.532-.29c.05-.065.08-.1.107-.13,0,.22.012.8.012.8,0,.23,0,.413-.007.572a.851.851,0,0,0-.45.284.54.54,0,0,0-.053.1h-.967c0-.017-.008-.037-.012-.049a.553.553,0,0,0-.278-.306v-.692c0-.019,0-.054-.007-.088v-.055a.236.236,0,0,1,0,.028h0a.771.771,0,0,0,.011-.084v-.429c0-.026-.008-.269-.008-.269,0,.038,0-.078,0-.078,0-.045,0-.111,0-.111,0,.028,0-.1,0-.1-.007-.263-.007-.331-.007-.346a.238.238,0,0,1-.011.07l.007-.034a.61.61,0,0,0,.011-.113.791.791,0,0,0-.052-.267.571.571,0,0,0-.427-.363,1,1,0,0,0-.145-.015.934.934,0,0,0-.219.032c.009,0-.219.051-.219.051s-.069.013-.069.013c-.142.033-.181.037-.186.038a.826.826,0,0,0-.259.04.57.57,0,0,0-.393.541v.113a.549.549,0,0,0,.122.334,1.788,1.788,0,0,0-.335.065,1.462,1.462,0,0,0-.363.184c-.033.025-.05.052-.08.077,0-.215-.007-.517-.015-.908a.568.568,0,0,0-.544-.557l-.084,0-.088,0a.567.567,0,0,0-.31.109.729.729,0,0,1-.165.076,1.1,1.1,0,0,1-.248.063.568.568,0,0,0-.487.431,1.019,1.019,0,0,0-.02.174,1.227,1.227,0,0,0,.011.155.4.4,0,0,0,.038.088l-.086.013a.561.561,0,0,0-.345-.107l-.163.007a.569.569,0,0,0-.377.166,1.155,1.155,0,0,0-.13.158c0-.007-.011.013-.063.048a.165.165,0,0,1-.075.027.573.573,0,0,0-.194.067,1.547,1.547,0,0,0-1.085-.386,1.871,1.871,0,0,0-.545.071c-.025.008-.048.028-.072.037a.592.592,0,0,0,.083-.071.718.718,0,0,0,.124-.4,1.119,1.119,0,0,0-.012-.156.569.569,0,0,0-.524-.486l-.1,0-.229.007c.049,0-.3-.019-.3-.019a.541.541,0,0,0-.191.033.457.457,0,0,0-.072-.014c-.031,0-.067,0-.1,0H42.16c-.273-.011-.383-.014-.439-.014a.479.479,0,0,0-.084.016c-.011,0-.02-.007-.031-.007-.057,0-.459.015-.459.015l-.308,0s-.04,0-.2-.011c-.108-.007-.184-.009-.245-.009a.558.558,0,0,0-.115.023c-.037-.006-.07-.031-.108-.03l-.3.014c-.065,0-.12.006-.17.006h-.085c-.144-.005-.261-.011-.369-.018a.777.777,0,0,0-.286.05.569.569,0,0,0-.361.581l.014.148a.555.555,0,0,0,.273.411c.016.031.038.076.071.149,0-.01.743,1.747.743,1.747.021.047.033.076.053.12H38.431v0a.568.568,0,0,0-.122-.526.806.806,0,0,0-.145-.1c.013-.013.031-.018.043-.031a.839.839,0,0,0,.211-.577.88.88,0,0,0-.369-.7,1.415,1.415,0,0,0-.918-.251,1.893,1.893,0,0,0-.75.146,1.693,1.693,0,0,0-.462.3.573.573,0,0,0-.059-.226.523.523,0,0,0,.041-.063.928.928,0,0,0,.086-.391.828.828,0,0,0-.271-.608.882.882,0,0,0-.617-.238.847.847,0,0,0-.861.855.863.863,0,0,0,.138.448.6.6,0,0,0-.152.064,1.244,1.244,0,0,0-.833-.289,1.579,1.579,0,0,0-.389.05,1.458,1.458,0,0,0-.325.123c-.026-.014-.046-.036-.073-.048a1.426,1.426,0,0,0-.6-.133,1.545,1.545,0,0,0-.391.067.523.523,0,0,0-.325-.127h-.127a.57.57,0,0,0-.438.205.328.328,0,0,1-.065.065.715.715,0,0,1-.178.057c-.062.014-.1.024-.145.035a.566.566,0,0,0-.129.061,1.565,1.565,0,0,0-1.05-.355,1.878,1.878,0,0,0-.546.071,1.654,1.654,0,0,0-.341.172,1.779,1.779,0,0,0-.057-.41,4.352,4.352,0,0,0-.15-.472.571.571,0,0,0-.373-.322,3.891,3.891,0,0,0-.559-.105,5.226,5.226,0,0,0-.611-.032,2.494,2.494,0,0,0-.472.045V19.122a2.927,2.927,0,0,0-3.018-3.093,6.012,6.012,0,0,0-2.78.886l.018-.01a1.78,1.78,0,0,1-.538.2,1.64,1.64,0,0,1-.553-.077,14.919,14.919,0,0,0-4.994-1C7.152,16.029,3.9,19.6,2.413,22.59.818,25.8.6,29.426.6,32.552c0,12.018,4.57,18.111,13.584,18.111,7.478,0,10.3-3.4,11.318-7.207.819,2.895,1.538,5.434,1.538,5.434a2.257,2.257,0,0,0,.183.451,2.593,2.593,0,0,0,2.358,1.326h1.279a2.456,2.456,0,0,0,2.566-1.885c0,.008,0,.017,0,.026l.392-1.608.514,1.721a2.282,2.282,0,0,0,.179.43,2.6,2.6,0,0,0,2.353,1.316h1.28a2.454,2.454,0,0,0,2.567-1.891l0,.02.015-.065.006-.022,2.1-8.831a2.487,2.487,0,0,0,1.93.869,2.6,2.6,0,0,0,2.35-1.309l.141-.25v6.674l-.331.148-.063.029a2.365,2.365,0,0,0-1.591,2.231,2.416,2.416,0,0,0,2.539,2.4h6.839a2.416,2.416,0,0,0,2.539-2.4,2.366,2.366,0,0,0-1.592-2.231l-.035-.016-.359-.161V39.188l.159.281a2.589,2.589,0,0,0,2.332,1.278,2.4,2.4,0,0,0,2.5-2.417V33.166a2.278,2.278,0,0,0-.79-1.725c.013-.023.037-.036.047-.061l.035.076a.568.568,0,0,0,.515.327h.2a.559.559,0,0,0,.492-.315.564.564,0,0,0,.506.321h.173a.571.571,0,0,0,.528-.356l.043-.105c.019-.049.031-.077.049-.122a.9.9,0,0,0,.229.319,1.081,1.081,0,0,0,.736.244,1.584,1.584,0,0,0,.684-.143.951.951,0,0,0,.462.129.928.928,0,0,0,.309-.053.542.542,0,0,0,.244.046c.258-.015.419-.018.509-.018l.234,0c.063.007.127.015.173.015l.142,0a.59.59,0,0,0,.146-.028.581.581,0,0,0,.132.025h.08c.039,0,.346-.022.346-.022-.038,0,.069,0,.069,0l.154-.005c-.05,0,.408.025.408.025a.567.567,0,0,0,.6-.542c0-.042,0-.072,0-.1A.689.689,0,0,0,67.52,30.706ZM55.04,30.04a.706.706,0,0,0,.138.321c-.018.032-.05.062-.065.095l0,.016-.067-.021v-.084C55.043,30.362,55.042,30.207,55.04,30.04Zm-.005-.673a.69.69,0,0,0,.115.079,1.01,1.01,0,0,0-.113.372l0-.2Zm-3.555.289h0a.591.591,0,0,1-.014.111A.816.816,0,0,0,51.48,29.656ZM47.6,27.918h0c-.008,0-.015,0-.022,0Zm-.372,2.353v.256a.74.74,0,0,0-.091-.05c0-.065,0-.126,0-.179C47.171,30.294,47.2,30.278,47.231,30.271ZM37.225,30.3l-.006.006-.024.027a.159.159,0,0,1-.031,0c-.019,0-.058-.043-.063-.047s-.008-.047-.016-.065A.869.869,0,0,0,37.225,30.3Zm27.564-1.484,0,0,.012-.008C64.786,28.815,64.789,28.814,64.789,28.814Zm.048,2.76-.016,0c.008,0,.011,0,.018-.005Zm1.237-1.117.008,0c-.013,0-.007,0,.006,0Z" fill="#fff"/><path d="M23.635,28.579c0,.2-.172.357-.516.357a.635.635,0,0,1-.687-.436c-1.031-3.338-3.521-8.066-7.9-8.066-3.779,0-4.467,3.774-4.467,12.158,0,11.919,1.891,13.668,5.755,13.668,4.724,0,6.529-7.31,6.529-7.669,0-.2.257-.317.687-.317s.6.118.6.358c0,5.879-1.89,9.615-9.448,9.615-10.05,0-11.167-9.06-11.167-15.695,0-4.887.43-14.1,11.167-14.1a12.257,12.257,0,0,1,4.122.834,4.016,4.016,0,0,0,1.46.238,3.759,3.759,0,0,0,1.632-.476,4.367,4.367,0,0,1,1.633-.6c.515,0,.6.278.6.675Z" fill="#231815"/><path d="M30.026,33.085c.176,0,.352.02.352.081s-.044.122-.22.205l-1.148.591a.373.373,0,0,0-.22.408L30.819,41.6h.089l1.765-7.226c.044-.142-.044-.285-.222-.367l-1.367-.632c-.132-.061-.265-.124-.265-.205,0-.061.133-.081.353-.081h5.6c.177,0,.309.02.309.081,0,.081-.088.144-.264.225l-1.413.653a.314.314,0,0,0-.132.346L37.438,41.6h.088l1.721-7.226A.289.289,0,0,0,39.114,34l-1.367-.632c-.132-.061-.221-.124-.221-.205,0-.061.221-.081.4-.081h5.6c.176,0,.309.02.309.081,0,.081-.088.144-.177.185l-1.5.734a.8.8,0,0,0-.4.469L38.5,48.27c0,.082-.132.123-.353.123h-1.28c-.176,0-.308-.041-.352-.123l-2.869-9.592h-.088L31.217,48.27c0,.082-.133.123-.354.123H29.584c-.176,0-.309-.041-.353-.123L25.349,34.554a.916.916,0,0,0-.486-.469l-1.191-.673c-.177-.1-.31-.165-.31-.246,0-.061.177-.081.353-.081Z" fill="#231815"/><path d="M49.527,34.064H47.9a.535.535,0,0,0-.485.225L45.115,38.35c-.044.081-.176.123-.353.123s-.22-.042-.22-.143V33.166c0-.041.088-.081.22-.081H57.69c.132,0,.221.04.221.081V38.33c0,.1-.044.143-.221.143s-.308-.042-.353-.123l-2.294-4.061a.539.539,0,0,0-.486-.225H52.925V46.923a.531.531,0,0,0,.353.571l1.323.593c.133.06.31.122.31.183s-.044.123-.265.123H47.807c-.221,0-.265-.062-.265-.123s.176-.123.309-.183l1.324-.593a.532.532,0,0,0,.352-.571Z" fill="#231815"/><path d="M27.545,28.211c.02.046.061.178.124.4a1.207,1.207,0,0,1,.044.317H27.5a1.551,1.551,0,0,0-.462-.454,1.039,1.039,0,0,0-.532-.138.7.7,0,0,0-.583.282,1.683,1.683,0,0,0-.3,1.065,2.146,2.146,0,0,0,.052.563,1.47,1.47,0,0,0,.212.446.675.675,0,0,0,.257.206.932.932,0,0,0,.438.106.88.88,0,0,0,.5-.159,1.8,1.8,0,0,0,.459-.474,1.263,1.263,0,0,1,.223-.02,1.336,1.336,0,0,1-.029.183c-.006.026-.022.124-.053.3l-.02.071-.032.109a1.013,1.013,0,0,1-.4.16,3.094,3.094,0,0,1-.634.054,2.532,2.532,0,0,1-.541-.054A1.274,1.274,0,0,1,25.614,31a1.634,1.634,0,0,1-.417-.364,1.386,1.386,0,0,1-.225-.426,1.705,1.705,0,0,1-.074-.518,1.542,1.542,0,0,1,.458-1.145,1.6,1.6,0,0,1,1.168-.452,4.667,4.667,0,0,1,.544.029A3.314,3.314,0,0,1,27.545,28.211Z" fill="#231815"/><path d="M29.919,29.478a.923.923,0,0,1,.223.331.991.991,0,0,1,.073.353,1.13,1.13,0,0,1-.1.5.965.965,0,0,1-.388.425,1.148,1.148,0,0,1-.568.137,1.1,1.1,0,0,1-.615-.163,1.011,1.011,0,0,1-.361-.369,1.107,1.107,0,0,1-.108-.514.987.987,0,0,1,.051-.314.919.919,0,0,1,.14-.274,1.067,1.067,0,0,1,.2-.2,1.094,1.094,0,0,1,.313-.16,1.352,1.352,0,0,1,.381-.047A1,1,0,0,1,29.919,29.478Zm-1.268.806c.014.194.023.306.03.335a.866.866,0,0,0,.094.27.379.379,0,0,0,.145.129.5.5,0,0,0,.242.056.4.4,0,0,0,.283-.108.657.657,0,0,0,.165-.342,2.657,2.657,0,0,0,.032-.5,1,1,0,0,0-.138-.6.467.467,0,0,0-.657-.077.554.554,0,0,0-.162.3A3.172,3.172,0,0,0,28.651,30.284Z" fill="#231815"/><path d="M30.5,31.013A.153.153,0,0,1,30.556,31a.609.609,0,0,0,.219-.048.035.035,0,0,0,.019-.031c0-.015.008-.155.013-.419v-.134l0-.237,0-.248v-.055a.224.224,0,0,0-.05-.16.66.66,0,0,0-.262-.111v-.094l.105-.026a1.189,1.189,0,0,0,.354-.125.862.862,0,0,0,.212-.19h.127v.037l.007.183v.127a1.481,1.481,0,0,1,.37-.23.96.96,0,0,1,.339-.056.851.851,0,0,1,.356.079.664.664,0,0,1,.286.265,1.57,1.57,0,0,1,.277-.226.936.936,0,0,1,.211-.078,1.066,1.066,0,0,1,.253-.033.682.682,0,0,1,.514.2.74.74,0,0,1,.189.534v.367c0,.077,0,.207-.007.393v.178a.161.161,0,0,0,.028.09.691.691,0,0,0,.159.05.275.275,0,0,1,.09.031c0,.03.006.054.009.073v.047a.791.791,0,0,1-.092.012c-.013,0-.051,0-.114-.01a2.222,2.222,0,0,0-.238-.01c-.234,0-.421.006-.558.02a.36.36,0,0,1-.016-.093l0-.034c.019-.01.085-.036.2-.078a.113.113,0,0,0,.034-.053,1.588,1.588,0,0,0,.012-.249L33.59,30a1.521,1.521,0,0,0-.025-.272.435.435,0,0,0-.07-.169.335.335,0,0,0-.123-.1.355.355,0,0,0-.161-.04.561.561,0,0,0-.268.073.713.713,0,0,0-.241.223l0,.067.006.3,0,.243v.231l0,.207c0,.1.009.161.029.18a.437.437,0,0,0,.226.063l.072.024a.183.183,0,0,1,.009.141h-.209c-.11-.011-.224-.016-.342-.018l-.249,0c-.06,0-.165.009-.314.024l-.041-.006-.007-.147a1.792,1.792,0,0,1,.254-.033.121.121,0,0,0,.03-.009.1.1,0,0,0,.03-.05.928.928,0,0,0,.012-.188l0-.47.009-.125a2.318,2.318,0,0,0-.025-.448.333.333,0,0,0-.138-.182.432.432,0,0,0-.249-.071.608.608,0,0,0-.33.09c-.093.059-.147.112-.161.159,0,.018,0,.032,0,.041l.007.023v.024a.262.262,0,0,1-.014.065l0,.665,0,.347a.351.351,0,0,0,.009.061l.011.034c.043.013.08.024.11.03a.507.507,0,0,1,.129.04.5.5,0,0,1,.007.055.357.357,0,0,1-.018.088l-.054,0c-.017,0-.094-.007-.232-.019h-.254c-.121,0-.267.008-.439.022l-.067,0c0-.026,0-.053-.007-.087A.306.306,0,0,1,30.5,31.013Z" fill="#231815"/><path d="M34.482,31.174l-.007-.154.268-.034a.146.146,0,0,0,.082-.047.279.279,0,0,0,.023-.141V29.77a.861.861,0,0,0-.014-.149.213.213,0,0,0-.092-.061,1.012,1.012,0,0,0-.234-.036v-.133a1.128,1.128,0,0,0,.421-.1.984.984,0,0,0,.268-.2h.156q.006.288.006.75l-.012.949c0,.066,0,.125.007.178a1.619,1.619,0,0,0,.238.051.451.451,0,0,1,.1.023l-.007.132c-.04,0-.073,0-.092,0s-.059,0-.107,0c-.159-.012-.371-.017-.636-.017-.077,0-.15,0-.221.01S34.508,31.174,34.482,31.174Zm.326-2.774a.273.273,0,0,1,.082-.206.284.284,0,0,1,.21-.081.316.316,0,0,1,.228.086.251.251,0,0,1,.091.192.389.389,0,0,1-.035.158.285.285,0,0,1-.115.128.3.3,0,0,1-.16.049.287.287,0,0,1-.207-.1A.311.311,0,0,1,34.808,28.4Z" fill="#231815"/><path d="M37.741,30.571c.026.014.044.024.056.029a.255.255,0,0,1,.087.058.728.728,0,0,1-.3.4,1.048,1.048,0,0,1-.611.168,1.158,1.158,0,0,1-.461-.1.963.963,0,0,1-.363-.257.8.8,0,0,1-.157-.3,1.122,1.122,0,0,1-.052-.306A1.092,1.092,0,0,1,36,29.922a1.028,1.028,0,0,1,.219-.362,1.1,1.1,0,0,1,.387-.269,1.316,1.316,0,0,1,.526-.1.928.928,0,0,1,.561.126.344.344,0,0,1,.158.253.28.28,0,0,1-.064.2.222.222,0,0,1-.176.072.287.287,0,0,1-.176-.063.461.461,0,0,1-.134-.214.356.356,0,0,0-.107-.156.264.264,0,0,0-.156-.046.522.522,0,0,0-.392.186.725.725,0,0,0-.172.511.879.879,0,0,0,.21.617.642.642,0,0,0,.48.229.73.73,0,0,0,.225-.03.8.8,0,0,0,.159-.09.713.713,0,0,0,.1-.1Z" fill="#231815"/><path d="M39.18,28.333l-.013-.148a.146.146,0,0,1,.044-.013c.129.009.258.014.387.019h.1c.055,0,.121,0,.2-.006l.3-.014a.05.05,0,0,1,.022.028l-.018.107c-.03.018-.059.034-.087.049-.062.033-.094.061-.094.083a.176.176,0,0,0,.024.077c.009.018.021.051.037.1.026.075.1.26.223.553l.6,1.4c.079-.147.2-.394.371-.743l-.345-.819c-.064-.152-.12-.279-.165-.378-.015-.032-.029-.064-.04-.094-.009-.014-.021-.038-.037-.068a.188.188,0,0,0-.071-.075,1.293,1.293,0,0,0-.23-.074l.006-.137c.05,0,.118,0,.206.006.125.009.206.014.242.014l.326,0,.4-.016.033,0,0,.074v.026a.086.086,0,0,1-.009.035.625.625,0,0,1-.126.022.149.149,0,0,0-.085.026.066.066,0,0,0-.024.049.391.391,0,0,0,.049.169c.013.03.033.075.056.135.079.2.139.343.182.435l.164-.337a3.453,3.453,0,0,0,.146-.342.161.161,0,0,0,.007-.039v-.014a.174.174,0,0,0-.051-.042,1.416,1.416,0,0,0-.2-.062.646.646,0,0,1,0-.066c0-.018,0-.044.006-.079.052,0,.2.006.434.014l.269,0h.086c.025,0,.051,0,.079,0l0,.023-.007.105,0,.011a1.534,1.534,0,0,0-.3.106.312.312,0,0,0-.094.106c-.078.136-.222.422-.432.855l.01.022.149.344.254.6c.027.059.046.1.056.13l.293-.768.409-1.044.066-.2a.233.233,0,0,0,0-.037l-.007-.039c-.053-.017-.1-.029-.13-.038a.313.313,0,0,1-.089-.036c0-.052-.007-.084-.007-.1a.117.117,0,0,1,.017-.05l.037-.016.347.02.23-.006.047,0a.435.435,0,0,1,.007.075.132.132,0,0,1-.015.068.1.1,0,0,1-.048.028.408.408,0,0,0-.13.089.546.546,0,0,0-.073.157c-.134.362-.272.712-.414,1.047s-.354.872-.635,1.607H41.9a.99.99,0,0,0-.051-.142c-.046-.1-.072-.164-.08-.19l-.259-.595a2.045,2.045,0,0,0-.1-.22l-.019-.033c0,.008-.084.164-.245.467s-.278.542-.352.713H40.55a8.12,8.12,0,0,0-.326-.786l-.747-1.756a1.391,1.391,0,0,0-.173-.32.232.232,0,0,0-.07-.039Z" fill="#231815"/><path d="M45.188,29.478a.923.923,0,0,1,.223.331.991.991,0,0,1,.073.353,1.13,1.13,0,0,1-.1.5A.96.96,0,0,1,45,31.09a1.148,1.148,0,0,1-.568.137,1.1,1.1,0,0,1-.615-.163,1,1,0,0,1-.361-.369,1.107,1.107,0,0,1-.108-.514.989.989,0,0,1,.052-.314.9.9,0,0,1,.14-.274,1.009,1.009,0,0,1,.2-.2,1.089,1.089,0,0,1,.312-.16,1.357,1.357,0,0,1,.381-.047A1,1,0,0,1,45.188,29.478Zm-1.268.806c.014.194.024.306.03.335a.866.866,0,0,0,.094.27.379.379,0,0,0,.145.129.5.5,0,0,0,.242.056.4.4,0,0,0,.283-.108.665.665,0,0,0,.165-.342,2.636,2.636,0,0,0,.033-.5,1.011,1.011,0,0,0-.138-.6.441.441,0,0,0-.364-.178.436.436,0,0,0-.294.1.554.554,0,0,0-.162.3A3.285,3.285,0,0,0,43.92,30.284Z" fill="#231815"/><path d="M45.751,31.051a.182.182,0,0,1,.079-.038.686.686,0,0,0,.225-.092,1.659,1.659,0,0,0,.021-.373,7.457,7.457,0,0,0-.026-.789.093.093,0,0,0-.037-.064.688.688,0,0,0-.16-.054.066.066,0,0,1-.056-.051l-.006-.086a.745.745,0,0,0,.313-.118.851.851,0,0,0,.21-.194.666.666,0,0,1,.065-.081l.163-.007c0,.036.007.066.007.088v.39a2.109,2.109,0,0,1,.14-.219c.015-.017.056-.054.125-.114a.313.313,0,0,1,.4.026.253.253,0,0,1,.092.193.3.3,0,0,1-.07.2.225.225,0,0,1-.186.087.364.364,0,0,1-.212-.083.2.2,0,0,0-.106-.05l-.016,0a.177.177,0,0,0-.091.088.5.5,0,0,0-.065.24l.005.062q.01.172.015.8a.285.285,0,0,0,.045.115.253.253,0,0,0,.085.046.752.752,0,0,0,.15.025.265.265,0,0,1,.13.029.081.081,0,0,1,.023.065.253.253,0,0,1-.014.069h-.218l-.442-.02c-.111,0-.212,0-.3.011h-.04c-.01,0-.091,0-.24.009a.316.316,0,0,1-.007-.057A.264.264,0,0,1,45.751,31.051Z" fill="#231815"/><path d="M47.428,31.064a.3.3,0,0,1,.137-.046c.109-.012.172-.028.187-.048a.434.434,0,0,0,.047-.247v-.656l-.006-.155v-1.1a.922.922,0,0,0-.031-.281.358.358,0,0,0-.18-.049.464.464,0,0,1-.108-.012c0-.038-.007-.067-.007-.085a.217.217,0,0,1,.005-.041,1.61,1.61,0,0,0,.38-.094,1.277,1.277,0,0,0,.3-.15l.063,0,.059,0c.011.535.017.9.017,1.1a1.248,1.248,0,0,1-.007.141v.015l.007.044v1.029l.006.339v.056a.24.24,0,0,0,.032.141.174.174,0,0,0,.118.038c.031,0,.095.011.191.023a.348.348,0,0,1,.011.08.475.475,0,0,1-.005.066l-.184-.009c-.1-.006-.231-.009-.387-.009l-.086,0c-.088,0-.217.007-.385.02h-.17Z" fill="#231815"/><path d="M49.261,29.391a.874.874,0,0,1,.221-.113,1.42,1.42,0,0,1,.3-.054h.13a.824.824,0,0,1,.488.168l.005-.055,0-.155.01-.249a1.23,1.23,0,0,0-.061-.5.136.136,0,0,0-.123-.067.394.394,0,0,1-.142-.031v-.113a.38.38,0,0,1,.113-.014,1.67,1.67,0,0,0,.271-.048l.078-.016.229-.052a.539.539,0,0,1,.085-.016.232.232,0,0,1,.037,0,.254.254,0,0,1,.019.072l-.007.035v.042c0,.043,0,.159.007.346v.126l0,.066,0,.117.008.242v.141c0,.062,0,.16,0,.293a.237.237,0,0,1-.006.057v.088a.358.358,0,0,1,.006.055v.926c0,.057,0,.124,0,.2a.643.643,0,0,0,.21.037.475.475,0,0,1,.093.011.181.181,0,0,1,.012.052.184.184,0,0,1-.016.063,1.4,1.4,0,0,1-.2.035,1.421,1.421,0,0,0-.455.114.251.251,0,0,1-.091.037.327.327,0,0,1-.059,0,.467.467,0,0,0,0-.054,1.373,1.373,0,0,0-.009-.205c-.024.012-.052.029-.086.049a1.261,1.261,0,0,1-.284.133,1.09,1.09,0,0,1-.294.036.87.87,0,0,1-.467-.111.883.883,0,0,1-.357-.391,1.235,1.235,0,0,1-.1-.5A.983.983,0,0,1,49.261,29.391Zm.716,1.531a.541.541,0,0,0,.084.006.455.455,0,0,0,.163-.033.915.915,0,0,0,.185-.093c0-.051,0-.082,0-.095,0-.491-.008-.787-.021-.888a.487.487,0,0,0-.153-.312.45.45,0,0,0-.3-.11.51.51,0,0,0-.193.037.383.383,0,0,0-.149.108.688.688,0,0,0-.13.232,1.054,1.054,0,0,0-.061.339.916.916,0,0,0,.16.579A.6.6,0,0,0,49.977,30.922Z" fill="#231815"/><path d="M52.722,28.033h.144c.01.017.018.03.023.037a.9.9,0,0,0,.1.15h.684l.281,0,.525,0H55.2l.137-.02a.262.262,0,0,0,.066-.113c.006-.014.014-.034.025-.058l.1,0,.07,0q0,.159,0,.483l0,.206,0,.118a.448.448,0,0,1-.011.1.765.765,0,0,1-.165.038,1.582,1.582,0,0,1-.132-.263.968.968,0,0,0-.09-.191.124.124,0,0,0-.066-.04,4.91,4.91,0,0,0-.5-.012c-.044,0-.1,0-.164.01a1.145,1.145,0,0,0-.011.149v.994l.009.737,0,.3a.748.748,0,0,0,.029.242.561.561,0,0,0,.137.03l.172.037c.046.012.088.024.123.037.008.055.013.089.013.1a.56.56,0,0,1-.008.06l-.083,0c-.16,0-.295,0-.407-.016s-.313-.017-.606-.017q-.07,0-.408.03c-.089.007-.146.01-.173.01a.528.528,0,0,0,0-.054l0-.055v-.018a.333.333,0,0,1,.193-.1,1.7,1.7,0,0,0,.333-.1.264.264,0,0,0,.029-.117c.011-.185.018-.482.018-.887l-.014-.88a4.124,4.124,0,0,0-.014-.44.055.055,0,0,0-.017-.03.045.045,0,0,0-.032-.013c-.048-.006-.2-.01-.467-.01a.672.672,0,0,0-.292.042,1.4,1.4,0,0,0-.3.316c-.039.049-.068.075-.086.075a.512.512,0,0,1-.138-.091,4.624,4.624,0,0,0,.2-.6C52.694,28.124,52.711,28.064,52.722,28.033Z" fill="#231815"/><path d="M57.511,30.736l.054.034a.069.069,0,0,1,.025.04l0,.011a.583.583,0,0,1-.147.288.33.33,0,0,1-.224.077.369.369,0,0,1-.235-.075.66.66,0,0,1-.18-.269.654.654,0,0,1-.283.268,1.011,1.011,0,0,1-.448.09.539.539,0,0,1-.358-.1.341.341,0,0,1-.115-.268.381.381,0,0,1,.034-.155.514.514,0,0,1,.111-.158,1.072,1.072,0,0,1,.244-.171c.017-.009.077-.036.178-.079l.583-.233a1.747,1.747,0,0,0,.008-.177.813.813,0,0,0-.078-.426.184.184,0,0,0-.164-.07.532.532,0,0,0-.216.045.319.319,0,0,0-.142.113.554.554,0,0,0-.056.192.361.361,0,0,1-.031.118.3.3,0,0,1-.127.079l-.126.052a.5.5,0,0,1-.2.061.1.1,0,0,1-.031-.079.459.459,0,0,1,.056-.229,1.028,1.028,0,0,1,.253-.262,1.194,1.194,0,0,1,.315-.176,1.54,1.54,0,0,1,.488-.066.7.7,0,0,1,.321.068.376.376,0,0,1,.185.2,1.516,1.516,0,0,1,.053.485l0,.383,0,.281v.073a.244.244,0,0,0,.026.133.079.079,0,0,0,.068.036.067.067,0,0,0,.043-.013l.071-.11Zm-.76-.539a1.436,1.436,0,0,0-.3.148.7.7,0,0,0-.232.21.361.361,0,0,0-.046.188.231.231,0,0,0,.061.166.182.182,0,0,0,.138.065A.332.332,0,0,0,56.6,30.9a.457.457,0,0,0,.144-.16,1.548,1.548,0,0,0,.021-.338A1.976,1.976,0,0,0,56.751,30.2Z" fill="#231815"/><path d="M57.712,31.174l-.006-.154.268-.034a.146.146,0,0,0,.082-.047.3.3,0,0,0,.022-.141V29.77a.861.861,0,0,0-.014-.149.207.207,0,0,0-.092-.061.991.991,0,0,0-.233-.036v-.133a1.128,1.128,0,0,0,.42-.1.984.984,0,0,0,.268-.2h.156q.008.288.008.75l-.014.949c0,.066,0,.125.008.178a1.629,1.629,0,0,0,.237.051.461.461,0,0,1,.1.023l-.006.132c-.043,0-.073,0-.094,0s-.059,0-.107,0c-.159-.012-.37-.017-.636-.017-.076,0-.15,0-.221.01S57.739,31.174,57.712,31.174Zm.326-2.774a.273.273,0,0,1,.082-.206.286.286,0,0,1,.21-.081.312.312,0,0,1,.228.086.252.252,0,0,1,.092.192.375.375,0,0,1-.036.158.277.277,0,0,1-.114.128.3.3,0,0,1-.16.049.289.289,0,0,1-.208-.1A.311.311,0,0,1,58.038,28.4Z" fill="#231815"/><path d="M58.951,29.29h.076c.013,0,.067,0,.162.01s.184.012.265.012c.062,0,.148,0,.26-.01s.18-.011.206-.011l.085,0a.471.471,0,0,1,0,.068A.171.171,0,0,1,60,29.41a.5.5,0,0,1-.082.019.448.448,0,0,0-.143.042.059.059,0,0,0-.02.032,1.259,1.259,0,0,0,.043.124l.226.521a3.885,3.885,0,0,0,.194.405c.03.068.052.116.063.139a3.99,3.99,0,0,0,.329-.735l-.1-.221a2.917,2.917,0,0,0-.136-.263c-.027-.008-.057-.015-.089-.023-.058-.015-.111-.029-.158-.046v-.126c.115,0,.192,0,.235.009.068.007.173.011.31.011.069,0,.153,0,.251-.008l.181-.006h.113l-.006.133-.116.012a.914.914,0,0,0-.16.03c.077.193.128.312.153.356l.028.052.249.546.085.186.091-.2c.071-.163.115-.263.129-.3.045-.116.07-.183.078-.2a.949.949,0,0,0,.109-.342c0-.022-.016-.043-.047-.064-.01-.006-.067-.026-.17-.059a.863.863,0,0,1-.15-.027l.007-.118a.187.187,0,0,1,.058-.012c.012,0,.083,0,.211.016s.2.017.223.017c.059,0,.149,0,.27-.014.052,0,.095-.007.13-.007v.066c0,.012,0,.036,0,.07a1.216,1.216,0,0,0-.285.11.1.1,0,0,0-.031.044l-.351.8c-.06.127-.161.369-.3.727-.02.047-.035.085-.046.111h-.173l-.4-.887-.042-.091a.779.779,0,0,0-.044-.086l-.021.037-.278.578c-.042.09-.081.168-.118.236a1.7,1.7,0,0,0-.1.207h-.2l-.364-.774-.393-.847a.318.318,0,0,0-.07-.094.3.3,0,0,0-.127-.055.21.21,0,0,1-.09-.03c0-.027,0-.049,0-.063A.308.308,0,0,1,58.951,29.29Z" fill="#231815"/><path d="M64.386,30.736l.053.034a.066.066,0,0,1,.026.04l0,.011a.583.583,0,0,1-.146.288.33.33,0,0,1-.224.077.367.367,0,0,1-.235-.075.65.65,0,0,1-.18-.269.649.649,0,0,1-.283.268,1.011,1.011,0,0,1-.448.09.537.537,0,0,1-.358-.1.341.341,0,0,1-.115-.268.381.381,0,0,1,.034-.155.527.527,0,0,1,.11-.158,1.131,1.131,0,0,1,.245-.171c.017-.009.076-.036.178-.079l.583-.233c.005-.059.007-.118.007-.177a.816.816,0,0,0-.077-.426.184.184,0,0,0-.164-.07.532.532,0,0,0-.216.045.328.328,0,0,0-.143.113.6.6,0,0,0-.056.192.372.372,0,0,1-.03.118.293.293,0,0,1-.128.079l-.125.052a.5.5,0,0,1-.2.061.1.1,0,0,1-.029-.079.449.449,0,0,1,.055-.229,1.028,1.028,0,0,1,.253-.262,1.179,1.179,0,0,1,.315-.176,1.54,1.54,0,0,1,.488-.066.687.687,0,0,1,.32.068.38.38,0,0,1,.187.2,1.554,1.554,0,0,1,.052.485l-.005.383.005.281v.073a.233.233,0,0,0,.027.133.077.077,0,0,0,.067.036.072.072,0,0,0,.044-.013l.07-.11Zm-.76-.539a1.461,1.461,0,0,0-.3.148.692.692,0,0,0-.232.21.352.352,0,0,0-.046.188.235.235,0,0,0,.06.166.185.185,0,0,0,.14.065.325.325,0,0,0,.22-.075.453.453,0,0,0,.145-.16,1.578,1.578,0,0,0,.02-.338A1.976,1.976,0,0,0,63.626,30.2Z" fill="#231815"/><path d="M64.609,31.054a.583.583,0,0,1,.115-.037.622.622,0,0,0,.153-.035.1.1,0,0,0,.048-.051.854.854,0,0,0,.015-.205v-.2l0-.166-.009-.245,0-.147a.942.942,0,0,0-.025-.241.141.141,0,0,0-.059-.07.834.834,0,0,0-.231-.091V29.45a.37.37,0,0,1,.055-.012c.017,0,.08-.018.191-.046.085-.03.141-.052.166-.064l.038-.021a.768.768,0,0,1,.064-.046.957.957,0,0,0,.169-.17l.13-.007-.008.267a.47.47,0,0,0-.006.065q0,.018.006.108a1.312,1.312,0,0,1,.349-.238.986.986,0,0,1,.39-.088.662.662,0,0,1,.38.108.519.519,0,0,1,.215.252,2.047,2.047,0,0,1,.05.572l-.006.761a.23.23,0,0,0,.015.089.362.362,0,0,0,.126.034l.111.02a.113.113,0,0,1,.021.069c0,.017,0,.041,0,.071l-.458-.025-.135,0h-.107l-.308.02h-.08v-.045c0-.026,0-.055,0-.086.022,0,.077-.012.164-.023A.526.526,0,0,0,66.231,31q.047-.018.054-.036a.388.388,0,0,0,.019-.151c0-.13,0-.229,0-.3l0-.268a1.806,1.806,0,0,0-.061-.611.277.277,0,0,0-.259-.173.6.6,0,0,0-.264.066,1.217,1.217,0,0,0-.281.2l-.006.04.006.146-.006.156.011.371-.005.059a1.459,1.459,0,0,0,.03.427.477.477,0,0,0,.229.105.5.5,0,0,1,.007.058.4.4,0,0,1-.016.086l-.123,0a1.111,1.111,0,0,1-.155-.016l-.252,0c-.125,0-.306,0-.543.02a.14.14,0,0,1-.009-.051C64.607,31.118,64.608,31.093,64.609,31.054Z" fill="#231815"/></svg>