<svg width="23" height="23" viewBox="0 0 23 23" fill="none" xmlns="http://www.w3.org/2000/svg">
<g id="line">
<path id="Vector" d="M11.5 0C5.14849 0 0 5.14869 0 11.5C0 17.8511 5.14869 23 11.5 23C17.8509 23 23 17.8509 23 11.5C22.9998 5.14869 17.8509 0 11.5 0ZM18.4319 12.2465C18.0738 13.2345 17.423 14.1156 16.5636 14.8191C15.3208 15.984 13.8865 16.9 12.9884 17.5403C11.3099 18.7366 10.953 18.6433 10.805 18.493C10.6438 18.3291 11.1025 17.6272 11.1425 16.9845C11.1638 16.6342 10.8108 16.5298 10.7098 16.5119C7.08047 16.1826 4.25508 13.6095 4.25508 10.4843C4.25508 7.13535 7.49844 4.42052 11.4994 4.42052C15.5 4.42052 18.7437 7.13535 18.7437 10.4843C18.7628 11.1128 18.6463 11.6992 18.4319 12.2465Z" fill="#D72873"/>
<g id="Group 3">
<path id="Vector_2" d="M9.57779 9.42822C9.47916 9.42822 9.39843 9.46222 9.33619 9.53083C9.27395 9.59923 9.24293 9.70163 9.24293 9.83824V12.469C9.24293 12.6058 9.27435 12.7086 9.33738 12.7776C9.40022 12.847 9.48035 12.8812 9.57779 12.8812C9.6796 12.8812 9.76192 12.8472 9.82475 12.7786C9.88759 12.7102 9.91921 12.6072 9.91921 12.4688V9.83804C9.91921 9.69984 9.88779 9.59704 9.82475 9.52924C9.76192 9.46203 9.6796 9.42822 9.57779 9.42822ZM13.165 9.42822C13.0709 9.42822 12.9959 9.46063 12.9409 9.52506C12.8854 9.58968 12.8577 9.68652 12.8577 9.81537V11.8016L11.5571 9.83367L11.4511 9.66743C11.4222 9.62094 11.3886 9.5775 11.3509 9.53779C11.3182 9.50436 11.2797 9.47726 11.2371 9.45785C11.1878 9.43701 11.1346 9.42697 11.0811 9.42842C11.0033 9.42842 10.9315 9.4501 10.8647 9.49344C10.8008 9.53315 10.7506 9.59153 10.7209 9.66067C10.6969 9.72291 10.6848 9.80881 10.6848 9.91798V12.494C10.6848 12.6201 10.7136 12.7159 10.7715 12.7819C10.8289 12.848 10.9055 12.8812 11.0013 12.8812C11.0938 12.8812 11.1699 12.8484 11.229 12.7831C11.2885 12.7179 11.3179 12.6215 11.3179 12.494V10.5376L12.5867 12.4827C12.6229 12.536 12.6593 12.5879 12.6959 12.6388C12.7325 12.6897 12.772 12.734 12.8144 12.772C12.8571 12.81 12.9025 12.8376 12.9512 12.8551C12.9999 12.8726 13.0546 12.8814 13.115 12.8814C13.3582 12.8814 13.4797 12.7348 13.4797 12.4419V9.81537C13.4797 9.68632 13.4513 9.58949 13.3954 9.52506C13.3389 9.46063 13.262 9.42822 13.165 9.42822ZM8.43224 12.2685H7.06101V9.83824C7.06101 9.70004 7.02959 9.59724 6.96616 9.52943C6.90332 9.46203 6.821 9.42822 6.71919 9.42822C6.61898 9.42822 6.53824 9.46222 6.4768 9.53083C6.41496 9.59923 6.38434 9.70163 6.38434 9.83824V12.4097C6.38434 12.5555 6.41655 12.6612 6.48098 12.7265C6.5458 12.7917 6.65139 12.8243 6.79913 12.8243H8.43224C8.543 12.8243 8.62711 12.799 8.68497 12.7479C8.71326 12.7232 8.73571 12.6924 8.7507 12.6579C8.76569 12.6235 8.77285 12.5861 8.77167 12.5485C8.77167 12.4682 8.74224 12.4014 8.68358 12.3481C8.62512 12.2952 8.54141 12.2685 8.43224 12.2685Z" fill="#D72873"/>
<path id="Vector_3" d="M16.4721 12.2868H14.8961V11.3369H16.2993C16.4037 11.3369 16.4815 11.3129 16.5312 11.2652C16.5817 11.2174 16.6066 11.1556 16.6066 11.0796C16.6066 11.0037 16.5813 10.9426 16.5304 10.8963C16.4795 10.8502 16.4021 10.8269 16.2993 10.8269H14.8961V10.0069H16.4196C16.5276 10.0069 16.6075 9.9828 16.66 9.93508C16.7125 9.88735 16.7386 9.82392 16.7386 9.74498C16.7386 9.66743 16.7125 9.6048 16.66 9.55707C16.6075 9.50935 16.5276 9.48529 16.4196 9.48529H14.634C14.5386 9.48529 14.46 9.49941 14.3982 9.52745C14.3381 9.55427 14.2899 9.60206 14.2626 9.66186C14.2337 9.72351 14.2194 9.80265 14.2194 9.89988V12.4099C14.2194 12.5557 14.2516 12.6614 14.3161 12.7267C14.3805 12.7919 14.4865 12.8245 14.6338 12.8245H16.4719C16.5783 12.8245 16.6585 12.7996 16.7123 12.7503C16.766 12.7012 16.7931 12.637 16.7931 12.558C16.7931 12.4759 16.7658 12.4103 16.7123 12.361C16.6587 12.3113 16.5787 12.2868 16.4721 12.2868Z" fill="#D72873"/>
</g>
</g>
</svg>
