<svg width="23" height="24" viewBox="0 0 23 24" fill="none" xmlns="http://www.w3.org/2000/svg">
<g id="Group 4">
<path id="Vector" d="M11.4998 0C5.14869 0 0 5.16924 0 11.5455C0 17.9215 5.14869 23.0913 11.4998 23.0913C17.8509 23.0913 23 17.9217 23 11.5455C22.9998 5.16924 17.8509 0 11.4998 0ZM15.4272 7.38535C15.4272 7.43829 15.4062 7.48907 15.3689 7.52651C15.3317 7.56394 15.2811 7.58498 15.2283 7.58498H12.4288V9.09558H15.2281C15.2809 9.09558 15.3315 9.11662 15.3687 9.15405C15.406 9.19149 15.427 9.24227 15.427 9.29521V12.1054C15.427 12.1584 15.406 12.2091 15.3687 12.2466C15.3315 12.284 15.2809 12.305 15.2281 12.305H12.6276V18.472C12.6276 18.525 12.6067 18.5758 12.5694 18.6132C12.5321 18.6506 12.4815 18.6717 12.4288 18.6717H9.78317C9.73044 18.6717 9.67986 18.6506 9.64257 18.6132C9.60528 18.5758 9.58433 18.525 9.58433 18.472V12.3052H7.77146C7.71872 12.3052 7.66814 12.2842 7.63085 12.2468C7.59356 12.2093 7.57261 12.1586 7.57261 12.1056V9.29541C7.57261 9.24247 7.59356 9.19169 7.63085 9.15425C7.66814 9.11682 7.71872 9.09578 7.77146 9.09578H9.58433V7.95629C9.58433 7.93992 9.58632 7.92415 9.58989 7.90898C9.59149 6.28578 9.93728 4.42881 12.5861 4.42043C12.5919 4.42003 12.598 4.41963 12.604 4.41963H15.2281C15.2809 4.41963 15.3315 4.44066 15.3687 4.4781C15.406 4.51554 15.427 4.56631 15.427 4.61926L15.4272 7.38535Z" fill="#D72873"/>
</g>
</svg>
