<svg width="23" height="23" viewBox="0 0 23 23" fill="none" xmlns="http://www.w3.org/2000/svg">
<g id="IG">
<path id="Vector" d="M13.7587 7.29443H15.5324V9.12162H13.7587V7.29443ZM14.4437 11.4801C14.4437 13.1033 13.123 14.424 11.4998 14.424C9.87644 14.424 8.55571 13.1033 8.55571 11.4801C8.55571 11.0409 8.65513 10.6251 8.82833 10.2503H6.88283V15.3037C6.88309 15.5243 6.97083 15.7357 7.1268 15.8917C7.28276 16.0477 7.49422 16.1354 7.7148 16.1357H15.2848C15.5054 16.1354 15.7169 16.0477 15.8728 15.8917C16.0288 15.7357 16.1165 15.5243 16.1168 15.3037V10.2505H14.1711C14.3502 10.6357 14.4433 11.0553 14.4437 11.4801Z" fill="#D72873"/>
<path id="Vector_2" d="M11.5 13.2309C12.4652 13.2309 13.2508 12.4455 13.2508 11.4801C13.251 11.0194 13.0689 10.5773 12.7444 10.2502H10.2552C9.93077 10.5773 9.74879 11.0194 9.74898 11.4801C9.74898 12.4455 10.5344 13.2309 11.5 13.2309Z" fill="#D72873"/>
<path id="Vector_3" d="M11.4998 0C5.14869 0 0 5.14889 0 11.5C0 17.8509 5.14869 23.0004 11.4998 23.0004C17.8509 23.0004 23 17.8511 23 11.5C22.9998 5.14889 17.8509 0 11.4998 0ZM17.3099 15.3039C17.3099 16.4204 16.4015 17.3289 15.2848 17.3289H7.71479C6.59827 17.3289 5.68975 16.4206 5.68975 15.3039V7.69908C5.68975 6.58256 6.59807 5.67404 7.71479 5.67404H15.2848C16.4013 5.67404 17.3099 6.58236 17.3099 7.69908V15.3039Z" fill="#D72873"/>
</g>
</svg>
