<svg width="24" height="24" viewBox="0 0 24 24" fill="none" xmlns="http://www.w3.org/2000/svg">
<g id="Contact">
<mask id="mask0_15_352" style="mask-type:luminance" maskUnits="userSpaceOnUse" x="0" y="0" width="24" height="24">
<g id="clip0_476_439">
<path id="Vector" d="M24 0H0V24H24V0Z" fill="white"/>
</g>
</mask>
<g mask="url(#mask0_15_352)">
<g id="Group">
<path id="Vector_2" d="M19.9645 3.06426C20.6168 2.85695 21.2316 3.47166 21.0242 4.12396L15.9932 19.9534C15.7775 20.6318 14.8703 20.7548 14.4819 20.1579L11.4577 15.5117C11.2744 15.2301 11.2757 14.8666 11.4609 14.5863L14.4129 10.1184C14.5213 9.9544 14.3363 9.75539 14.1648 9.8515L9.47441 12.4803C9.2067 12.6303 8.87863 12.6231 8.6177 12.4616L3.99729 9.60066C3.38439 9.22116 3.4989 8.29752 4.1859 8.07918L19.9645 3.06426Z" stroke="black" stroke-linejoin="round"/>
<path id="Vector_3" d="M9.61894 14.2276L9.15914 14.6475M4.75401 18.6703L3.0928 20.1874M5.94057 17.5867L7.77976 15.9072M7.44706 19.9287L6.238 21.0608M8.31066 19.12L9.64926 17.8665M3.77136 15.6978L2.59399 16.727M4.61234 14.9627L5.91584 13.8232" stroke="#292929" stroke-linecap="round"/>
</g>
</g>
</g>
</svg>
