<svg width="24" height="24" viewBox="0 0 24 24" fill="none" xmlns="http://www.w3.org/2000/svg">
<g id="Customer">
<path id="Vector" d="M11.9063 12.9375C7.69348 12.9375 4.22664 16.139 3.79524 20.2472C3.74413 20.7339 4.12659 21.1423 4.61456 21.1806L7.35101 21.3941C10.3832 21.6311 13.4293 21.6311 16.4616 21.3941L19.198 21.1806C19.6861 21.1423 20.0686 20.7339 20.0174 20.2472C19.5859 16.139 16.1191 12.9375 11.9063 12.9375Z" stroke="#292929" stroke-linecap="round"/>
<path id="Vector_2" d="M12 12.9375C14.2782 12.9375 16.125 11.0907 16.125 8.8125C16.125 6.53433 14.2782 4.6875 12 4.6875C9.72183 4.6875 7.875 6.53433 7.875 8.8125C7.875 11.0907 9.72183 12.9375 12 12.9375Z" stroke="#292929"/>
<path id="Vector_3" d="M18.375 8.8125C18.375 5.18813 15.5208 2.25 12 2.25C8.47918 2.25 5.625 5.18813 5.625 8.8125" stroke="#292929"/>
<path id="Vector_4" d="M16.5 9.5533C16.5 8.9746 17.0192 8.52319 17.5901 8.61741L18.375 8.74692V9.56254C18.375 10.0803 17.9553 10.5 17.4375 10.5C16.9197 10.5 16.5 10.0711 16.5 9.5533ZM7.5 9.49427C7.5 8.93222 7.00884 8.49647 6.45081 8.56345L5.625 8.66254V9.75004C5.625 10.2678 6.04474 10.6875 6.5625 10.6875C7.08026 10.6875 7.5 10.2678 7.5 9.75004V9.49427Z" stroke="#292929"/>
<path id="Vector_5" d="M17.625 10.5H13.125" stroke="#292929" stroke-linecap="round"/>
<path id="Vector_6" d="M13.4062 9.9375H12.8438C12.6884 9.9375 12.5625 10.0634 12.5625 10.2188C12.5625 10.3741 12.6884 10.5 12.8438 10.5H13.4062C13.5616 10.5 13.6875 10.3741 13.6875 10.2188C13.6875 10.0634 13.5616 9.9375 13.4062 9.9375Z" fill="#292929" stroke="#292929"/>
</g>
</svg>
