<svg width="38" height="45" viewBox="0 0 38 45" fill="none" xmlns="http://www.w3.org/2000/svg">
<path id="Vector" d="M11.309 16.6146L10.7404 35.2446C10.6855 36.9595 11.5342 38.5051 13.007 39.3879C14.4797 40.2708 16.2417 40.2826 17.7272 39.4252L19.4934 38.4059L21.8239 42.4409C22.4482 43.5218 23.4488 44.2921 24.653 44.6148C25.8573 44.9375 27.1155 44.7724 28.1901 44.1467L33.5711 41.0412C34.6522 40.4172 35.4226 39.4171 35.7451 38.2132C36.0677 37.0094 35.9024 35.7515 35.2763 34.6771L32.9459 30.6421L34.712 29.6228C36.1976 28.7655 37.0701 27.2277 37.0398 25.5178C37.0114 23.8015 36.0967 22.294 34.5835 21.484L18.1656 12.663C16.7317 11.8952 15.0361 11.9221 13.6266 12.7301C12.2318 13.5351 11.3607 14.9895 11.309 16.6146ZM16.7092 15.3904L33.1271 24.2114C33.8529 24.6011 33.9429 25.2808 33.9465 25.5538C33.9501 25.8268 33.8846 26.5137 33.1684 26.9216L30.057 28.7172C29.3142 29.1459 29.0596 30.096 29.4885 30.8386L32.5958 36.2186C33.0105 36.9364 32.7454 37.9256 32.0274 38.3399L26.6464 41.4455C26.2833 41.655 25.8704 41.7118 25.4668 41.6037C25.0633 41.4955 24.7275 41.2382 24.5244 40.8769L21.4171 35.4969C20.9881 34.7543 20.0378 34.4996 19.295 34.9283L16.1836 36.724C15.4738 37.1336 14.8443 36.8533 14.6096 36.7137C14.3749 36.5741 13.831 36.1564 13.8562 35.3332L14.4231 16.7098C14.4444 15.9273 14.9739 15.5392 15.1968 15.4106C15.4196 15.282 16.0189 15.0241 16.7092 15.3904ZM7.59833 2.26423C6.88031 2.67862 6.63272 3.60265 7.0456 4.32704L10.1529 9.707C10.5675 10.4249 11.4919 10.6726 12.2164 10.2599C12.5795 10.0503 12.8221 9.71779 12.9215 9.34688C13.0209 8.97596 12.9788 8.56017 12.7674 8.20361L9.66008 2.82365C9.24243 2.09101 8.31809 1.84334 7.59833 2.26423ZM17.2381 1.95977L15.8345 7.19813C15.6183 8.00503 16.0949 8.83018 16.902 9.04646C17.7092 9.26274 18.5345 8.78643 18.7507 7.97953L20.1543 2.74117C20.3705 1.93426 19.894 1.10912 19.0868 0.892836C18.2796 0.676556 17.4543 1.15286 17.2381 1.95977ZM8.8223 13.7095C9.03851 12.9026 8.56193 12.0775 7.75476 11.8612L2.51467 10.4571C1.7075 10.2408 0.882192 10.7171 0.665983 11.524C0.449774 12.3309 0.926356 13.1561 1.73353 13.3724L6.97362 14.7764C7.77602 14.9845 8.60783 14.5099 8.8223 13.7095Z" fill="white"/>
</svg>
