<svg width="24" height="24" viewBox="0 0 24 24" fill="none" xmlns="http://www.w3.org/2000/svg">
<g id="Phone">
<g id="Clip path group">
<mask id="mask0_15_358" style="mask-type:luminance" maskUnits="userSpaceOnUse" x="0" y="0" width="24" height="24">
<g id="clip0_476_144">
<path id="Vector" d="M24 0H0V24H24V0Z" fill="white"/>
</g>
</mask>
<g mask="url(#mask0_15_358)">
<g id="Group">
<path id="Vector_2" d="M6.74997 11.7188L2.81247 7.87505M16.5 21.1875L12.2812 17.3438M2.83216 7.96623C2.92688 7.83185 3.01833 7.70093 3.10495 7.57548C3.93826 6.36875 5.67925 6.26483 6.6068 7.3726L7.6099 8.57062C8.29115 9.38423 8.10723 10.6104 7.21728 11.1884L6.97703 11.3444C6.57531 11.6053 6.42642 12.1218 6.62763 12.5565C7.62115 14.703 9.34493 16.4268 11.4915 17.4203C11.9262 17.6215 12.4426 17.4726 12.7035 17.0709L12.8595 16.8307C13.4375 15.9407 14.6637 15.7568 15.4773 16.4381L16.6753 17.4412C17.7831 18.3687 17.6792 20.1096 16.4725 20.943C16.347 21.0297 16.2161 21.121 16.0817 21.2159C14.2727 22.4909 11.8764 22.5717 10.048 21.3527C7.13581 19.4112 4.63683 16.9121 2.69521 13.9999C1.47624 12.1716 1.55715 9.77528 2.83216 7.96623Z" stroke="#292929"/>
<path id="Vector_3" d="M10.125 6.1875C10.125 5.25551 10.8805 4.5 11.8125 4.5H19.3125C20.2446 4.5 21 5.25551 21 6.1875V9.86582C21 10.7978 20.2446 11.5533 19.3125 11.5533H15.2035C15.0782 11.5533 14.9581 11.6035 14.87 11.6927L13.1467 13.4377C12.8522 13.7358 12.3444 13.5273 12.3444 13.1083V12.0221C12.3444 11.7632 12.1345 11.5533 11.8756 11.5533H11.8125C10.8805 11.5533 10.125 10.7978 10.125 9.86582V6.1875Z" stroke="#292929" stroke-linejoin="round"/>
<path id="Vector_4" d="M13.4062 8.8125C13.7687 8.8125 14.0625 8.51869 14.0625 8.15625C14.0625 7.79381 13.7687 7.5 13.4062 7.5C13.0438 7.5 12.75 7.79381 12.75 8.15625C12.75 8.51869 13.0438 8.8125 13.4062 8.8125Z" fill="#292929"/>
<path id="Vector_5" d="M15.8438 8.8125C16.2062 8.8125 16.5 8.51869 16.5 8.15625C16.5 7.79381 16.2062 7.5 15.8438 7.5C15.4813 7.5 15.1875 7.79381 15.1875 8.15625C15.1875 8.51869 15.4813 8.8125 15.8438 8.8125Z" fill="#292929"/>
<path id="Vector_6" d="M18.2812 8.8125C18.6437 8.8125 18.9375 8.51869 18.9375 8.15625C18.9375 7.79381 18.6437 7.5 18.2812 7.5C17.9188 7.5 17.625 7.79381 17.625 8.15625C17.625 8.51869 17.9188 8.8125 18.2812 8.8125Z" fill="#292929"/>
</g>
</g>
</g>
</g>
</svg>
